# xmcd CD database file
#
# Track frame offsets:
#	150
#	13989
#	25775
#	54994
#	67070
#	75728
#	88553
#	90372
#	105216
#	143327
#
# Disc length: 2107 seconds
#
# Revision: 0
# Processed by: cddbd v1.5.2PL0 Copyright (c) Steve Scherf et al.
# Submitted via: CDex 1.70beta2
#
DISCID=6b08390a
DTITLE=B.B. KING - Newport Folk Festival
DYEAR=1968
DGENRE=Blues
TTITLE0=Introduction By George Wein
TTITLE1=Everyday I Have The Blues
TTITLE2=How Blue Can You Get
TTITLE3=Whole Lot Of Loving
TTITLE4=Band Introduction
TTITLE5=Please Accept My Love
TTITLE6=Song Introduction
TTITLE7=I'm Gonna Do What They Do To Me
TTITLE8=Sweet Sixteen
TTITLE9=Paying The Cost To Be The Boss
EXTD=YEAR: 1968
EXTT0=
EXTT1=
EXTT2=
EXTT3=
EXTT4=
EXTT5=
EXTT6=
EXTT7=
EXTT8=
EXTT9=
PLAYORDER=
